<svg width="20" height="19" viewBox="0 0 20 19" fill="none" xmlns="http://www.w3.org/2000/svg">
<path d="M19.2263 7.46399C19.1628 7.26368 19.0406 7.08705 18.8756 6.95696C18.7106 6.82688 18.5103 6.74934 18.3007 6.73438L13.0181 6.30469L10.9831 1.37789C10.903 1.18304 10.7667 1.01639 10.5917 0.899121C10.4166 0.781849 10.2107 0.719238 10 0.719238C9.78931 0.719238 9.58337 0.781849 9.40832 0.899121C9.23328 1.01639 9.09703 1.18304 9.01688 1.37789L6.98188 6.30469L1.6993 6.73438C1.48938 6.7522 1.28938 6.83161 1.1244 6.96264C0.959424 7.09368 0.836803 7.2705 0.771916 7.47094C0.707029 7.67139 0.702765 7.88653 0.759658 8.08938C0.816551 8.29224 0.932068 8.47378 1.09173 8.61125L5.1179 12.084L3.88727 17.2738C3.83573 17.4789 3.84668 17.6948 3.91871 17.8937C3.99074 18.0926 4.12056 18.2654 4.29152 18.39C4.46248 18.5146 4.66677 18.5853 4.87817 18.593C5.08958 18.6006 5.29845 18.5449 5.47798 18.433L10 15.6521L14.522 18.433C14.6997 18.5453 14.9071 18.6011 15.1171 18.5933C15.327 18.5855 15.5297 18.5143 15.6985 18.3892C15.8721 18.2664 16.0045 18.094 16.0784 17.8947C16.1523 17.6953 16.1643 17.4783 16.1127 17.272L14.8821 12.0797L18.9083 8.60695C19.0697 8.47019 19.1862 8.28812 19.2429 8.08433C19.2996 7.88055 19.2938 7.66443 19.2263 7.46399ZM18.4588 8.08789L14.2754 11.6973C14.2278 11.7384 14.1923 11.7917 14.1729 11.8516C14.1535 11.9115 14.1509 11.9755 14.1654 12.0367L15.4433 17.4327C15.462 17.5065 15.4579 17.5842 15.4315 17.6555C15.4051 17.7269 15.3577 17.7886 15.2955 17.8323C15.2363 17.8765 15.165 17.9017 15.0912 17.9044C15.0174 17.9072 14.9445 17.8874 14.8821 17.8478L10.1805 14.956C10.1262 14.9226 10.0637 14.9048 10 14.9048C9.93627 14.9048 9.87379 14.9226 9.81954 14.956L5.1179 17.8478C5.05555 17.8874 4.98263 17.9072 4.90881 17.9044C4.83499 17.9017 4.76375 17.8765 4.70454 17.8323C4.64232 17.7886 4.59487 17.7269 4.56848 17.6555C4.54208 17.5842 4.53798 17.5065 4.55673 17.4327L5.83462 12.0367C5.8491 11.9755 5.84651 11.9115 5.82711 11.8516C5.80771 11.7917 5.77226 11.7384 5.72462 11.6973L1.54118 8.08789C1.48339 8.03917 1.44164 7.97414 1.4214 7.90131C1.40116 7.82848 1.40337 7.75124 1.42774 7.67969C1.45015 7.60883 1.49336 7.54634 1.55175 7.50037C1.61015 7.45439 1.68102 7.42704 1.75516 7.42188L7.25001 6.97414C7.31321 6.96912 7.37379 6.94671 7.42506 6.9094C7.47632 6.87209 7.51626 6.82133 7.54048 6.76274L9.65626 1.64086C9.68397 1.57143 9.73187 1.51191 9.79376 1.46997C9.85565 1.42804 9.92869 1.40563 10.0034 1.40563C10.0782 1.40563 10.1512 1.42804 10.2131 1.46997C10.275 1.51191 10.3229 1.57143 10.3506 1.64086L12.4664 6.76274C12.4901 6.82037 12.529 6.87048 12.5789 6.90771C12.6289 6.94495 12.688 6.96791 12.75 6.97414L18.2414 7.41672C18.3156 7.42188 18.3864 7.44923 18.4448 7.49521C18.5032 7.54119 18.5464 7.60367 18.5688 7.67453C18.5947 7.74644 18.5981 7.82454 18.5784 7.8984C18.5588 7.97227 18.5171 8.03837 18.4588 8.08789Z" fill="#252931" stroke="#252931" stroke-width="0.4"/>
</svg>
