<svg width="22" height="22" viewBox="0 0 22 22" fill="none" xmlns="http://www.w3.org/2000/svg">
<path d="M19.9811 9.20472H19.2427V9.16668H10.9927V12.8333H16.1733C15.4175 14.9678 13.3866 16.5 10.9927 16.5C7.95534 16.5 5.49272 14.0374 5.49272 11C5.49272 7.96264 7.95534 5.50001 10.9927 5.50001C12.3948 5.50001 13.6703 6.02893 14.6415 6.89289L17.2343 4.30009C15.5971 2.7743 13.4072 1.83334 10.9927 1.83334C5.93042 1.83334 1.82605 5.93772 1.82605 11C1.82605 16.0623 5.93042 20.1667 10.9927 20.1667C16.055 20.1667 20.1594 16.0623 20.1594 11C20.1594 10.3854 20.0961 9.78543 19.9811 9.20472Z" fill="#FFC107"/>
<path d="M2.88293 6.73339L5.89464 8.94209C6.70956 6.92451 8.68314 5.50001 10.9927 5.50001C12.3947 5.50001 13.6703 6.02893 14.6415 6.89288L17.2343 4.30009C15.5971 2.7743 13.4072 1.83334 10.9927 1.83334C7.47177 1.83334 4.41835 3.82114 2.88293 6.73339Z" fill="#FF3D00"/>
<path d="M10.9927 20.1667C13.3604 20.1667 15.5118 19.2606 17.1384 17.787L14.3014 15.3863C13.3503 16.11 12.1878 16.5013 10.9927 16.5C8.60841 16.5 6.58395 14.9797 5.82128 12.8581L2.83203 15.1612C4.34911 18.1298 7.43003 20.1667 10.9927 20.1667Z" fill="#4CAF50"/>
<path d="M19.9811 9.2047H19.2427V9.16666H10.9927V12.8333H16.1732C15.8117 13.8492 15.1605 14.7369 14.3 15.3867L14.3014 15.3858L17.1385 17.7865C16.9377 17.9689 20.1593 15.5833 20.1593 11C20.1593 10.3854 20.0961 9.78541 19.9811 9.2047Z" fill="#1976D2"/>
</svg>
